<svg width="143" height="145" viewBox="0 0 143 145" fill="none" xmlns="http://www.w3.org/2000/svg">
<path d="M76.8604 0C92.702 0 105.544 12.8141 105.544 28.6211V112.647H95.8545C94.423 112.647 93.2108 112.426 92.2197 111.985C91.2656 111.508 90.3116 110.699 89.3574 109.561L51.5322 61.6719C51.6791 63.1047 51.7709 64.501 51.8076 65.8604C51.881 67.1828 51.918 68.4319 51.918 69.6074V112.647H35.5098V32.3545H45.3105C46.118 32.3545 46.7971 32.3914 47.3477 32.4648C47.8981 32.5383 48.3936 32.685 48.834 32.9053C49.2744 33.089 49.6968 33.365 50.1006 33.7324C50.5043 34.0998 50.9637 34.5952 51.4775 35.2197L89.6328 83.4395C89.4493 81.8965 89.3205 80.4083 89.2471 78.9756C89.1737 77.5062 89.1367 76.1285 89.1367 74.8428V32.3545H89.1533V28.6211C89.1533 21.8467 83.6496 16.3545 76.8604 16.3545H28.6836C21.8945 16.3546 16.3907 21.8468 16.3906 28.6211V33.5371H16.459V116.13C16.459 122.963 21.9853 128.503 28.8027 128.503H113.238C120.056 128.503 125.582 122.963 125.582 116.13V101.588H125.667V32.1572H142.041V116.13C142.041 132.074 129.145 145 113.238 145H28.8027C12.8954 145 0 132.074 0 116.13V28.6211C4.48774e-05 12.8142 12.8421 0.000132094 28.6836 0H76.8604Z" fill="url(#paint0_linear_2526_1721)"/>
<defs>
<linearGradient id="paint0_linear_2526_1721" x1="5.31337" y1="-35.2109" x2="182.169" y2="-1.48526" gradientUnits="userSpaceOnUse">
<stop stop-color="#141F42"/>
<stop offset="0.470772" stop-color="#9C096C"/>
<stop offset="1" stop-color="#2300C5"/>
</linearGradient>
</defs>
</svg>
